<svg width="28" height="28" viewBox="0 0 28 28" fill="none" xmlns="http://www.w3.org/2000/svg">
<path d="M16.3333 10.2666C16.3333 10.1594 16.3724 10.0491 16.4507 9.9359C16.5289 9.8227 16.6162 9.74822 16.7125 9.71246C17.2958 9.49857 17.8921 9.33329 18.5014 9.21663C19.1107 9.09996 19.7515 9.04163 20.4239 9.04163C20.8441 9.04163 21.259 9.06593 21.6688 9.11454C22.0784 9.16315 22.4777 9.23607 22.8666 9.33329C22.9833 9.37218 23.0902 9.44408 23.1875 9.54898C23.2847 9.6539 23.3333 9.77193 23.3333 9.90306C23.3333 10.126 23.2604 10.2958 23.1145 10.4125C22.9687 10.5291 22.7888 10.5583 22.575 10.5C22.2483 10.4027 21.9041 10.3298 21.5425 10.2812C21.1808 10.2326 20.8055 10.2083 20.4166 10.2083C19.8527 10.2083 19.3083 10.2618 18.7833 10.3687C18.2583 10.4757 17.743 10.6361 17.2375 10.85C16.9652 10.9472 16.7465 10.9423 16.5812 10.8354C16.4159 10.7284 16.3333 10.5388 16.3333 10.2666ZM16.3333 16.6833C16.3333 16.5704 16.3724 16.4544 16.4507 16.3352C16.5289 16.216 16.6162 16.1376 16.7125 16.1C17.2958 15.8861 17.8921 15.7257 18.5014 15.6187C19.1107 15.5118 19.7515 15.4583 20.4239 15.4583C20.8441 15.4583 21.259 15.4826 21.6688 15.5312C22.0784 15.5798 22.4777 15.6527 22.8666 15.75C22.9833 15.7888 23.0902 15.8607 23.1875 15.9656C23.2847 16.0706 23.3333 16.1886 23.3333 16.3197C23.3333 16.5427 23.2604 16.7125 23.1145 16.8291C22.9687 16.9458 22.7888 16.975 22.575 16.9166C22.2483 16.8194 21.9041 16.7465 21.5425 16.6979C21.1808 16.6493 20.8055 16.625 20.4166 16.625C19.8527 16.625 19.3083 16.6736 18.7833 16.7708C18.2583 16.868 17.743 17.0236 17.2375 17.2375C16.9652 17.3347 16.7465 17.3347 16.5812 17.2375C16.4159 17.1402 16.3333 16.9555 16.3333 16.6833ZM16.3333 13.475C16.3333 13.3677 16.3724 13.2575 16.4507 13.1442C16.5289 13.031 16.6162 12.9566 16.7125 12.9208C17.2958 12.7069 17.8921 12.5416 18.5014 12.425C19.1107 12.3083 19.7515 12.25 20.4239 12.25C20.8441 12.25 21.259 12.2743 21.6688 12.3229C22.0784 12.3715 22.4777 12.4444 22.8666 12.5416C22.9833 12.5805 23.0902 12.6524 23.1875 12.7573C23.2847 12.8622 23.3333 12.9803 23.3333 13.1114C23.3333 13.3343 23.2604 13.5041 23.1145 13.6208C22.9687 13.7375 22.7888 13.7666 22.575 13.7083C22.2483 13.6111 21.9041 13.5382 21.5425 13.4895C21.1808 13.4409 20.8055 13.4166 20.4166 13.4166C19.8527 13.4166 19.3083 13.4701 18.7833 13.577C18.2583 13.684 17.743 13.8444 17.2375 14.0583C16.9652 14.1555 16.7465 14.1507 16.5812 14.0437C16.4159 13.9368 16.3333 13.7472 16.3333 13.475ZM7.23329 19.25C8.27485 19.25 9.28872 19.3715 10.2749 19.6145C11.261 19.8576 12.2305 20.2222 13.1833 20.7083V8.25413C12.3083 7.67079 11.3592 7.21871 10.3361 6.89788C9.31294 6.57704 8.27868 6.41663 7.23329 6.41663C6.4944 6.41663 5.7701 6.50899 5.06038 6.69371C4.35065 6.87843 3.63607 7.1069 2.91663 7.37913V20.0375C3.5194 19.7652 4.20482 19.5659 4.97288 19.4395C5.74093 19.3132 6.4944 19.25 7.23329 19.25ZM14.9333 20.7083C15.9055 20.2222 16.8583 19.8576 17.7916 19.6145C18.725 19.3715 19.7166 19.25 20.7666 19.25C21.5055 19.25 22.2687 19.3083 23.0562 19.425C23.8437 19.5416 24.5194 19.6972 25.0833 19.8916V7.37913C24.4222 7.04857 23.7239 6.80551 22.9885 6.64996C22.253 6.4944 21.5124 6.41663 20.7666 6.41663C19.7166 6.41663 18.7007 6.57704 17.7187 6.89788C16.7368 7.21871 15.8083 7.67079 14.9333 8.25413V20.7083ZM14.0583 23.0125C13.9117 23.0125 13.773 22.9979 13.6421 22.9687C13.5112 22.9395 13.3972 22.8861 13.3 22.8083C12.3861 22.2444 11.4153 21.8069 10.3878 21.4958C9.36016 21.1847 8.30867 21.0291 7.23329 21.0291C6.52285 21.0291 5.82511 21.1166 5.14006 21.2916C4.45499 21.4666 3.77218 21.6805 3.09163 21.9333C2.64246 22.1472 2.20933 22.118 1.79225 21.8458C1.37517 21.5736 1.16663 21.1847 1.16663 20.6791V7.17496C1.16663 6.88329 1.23468 6.61593 1.37079 6.37288C1.5069 6.12982 1.71107 5.94024 1.98329 5.80413C2.79996 5.41524 3.64963 5.12843 4.53231 4.94371C5.41497 4.75899 6.3153 4.66663 7.23329 4.66663C8.45829 4.66663 9.64927 4.8319 10.8062 5.16246C11.9632 5.49301 13.0472 5.99857 14.0583 6.67913C15.05 5.99857 16.1145 5.49301 17.252 5.16246C18.3895 4.8319 19.5611 4.66663 20.7666 4.66663C21.6779 4.66663 22.5718 4.75899 23.448 4.94371C24.3243 5.12843 25.1708 5.41524 25.9875 5.80413C26.2597 5.94024 26.4687 6.12982 26.6145 6.37288C26.7604 6.61593 26.8333 6.88329 26.8333 7.17496V20.6791C26.8333 21.2215 26.6145 21.6342 26.177 21.9172C25.7395 22.2001 25.3069 22.2055 24.8791 21.9333C24.218 21.6611 23.5449 21.4423 22.8599 21.277C22.1748 21.1118 21.4771 21.0291 20.7666 21.0291C19.7113 21.0291 18.6794 21.1847 17.671 21.4958C16.6625 21.8069 15.7111 22.2444 14.8166 22.8083C14.7194 22.8861 14.6054 22.9395 14.4745 22.9687C14.3436 22.9979 14.2049 23.0125 14.0583 23.0125Z" fill="url(#paint0_linear_2_226)"/>
<defs>
<linearGradient id="paint0_linear_2_226" x1="14" y1="4.66663" x2="14" y2="23.0125" gradientUnits="userSpaceOnUse">
<stop stop-color="#393199"/>
<stop offset="1" stop-color="#9071E9"/>
</linearGradient>
</defs>
</svg>
