<svg width="28" height="28" viewBox="0 0 28 28" fill="none" xmlns="http://www.w3.org/2000/svg">
<path d="M15.4875 25.6666C15.0402 25.6666 14.7145 25.5208 14.5104 25.2291C14.3062 24.9374 14.2819 24.5777 14.4375 24.1499L18.725 12.7749C18.8416 12.4638 19.0555 12.2013 19.3666 11.9874C19.6777 11.7735 19.9986 11.6666 20.3291 11.6666C20.6597 11.6666 20.9854 11.7735 21.3062 11.9874C21.627 12.2013 21.8458 12.4638 21.9625 12.7749L26.3375 24.0333C26.5125 24.4805 26.493 24.8645 26.2791 25.1853C26.0652 25.5062 25.7055 25.6666 25.2 25.6666C24.9861 25.6666 24.7819 25.5985 24.5875 25.4624C24.393 25.3263 24.2569 25.1513 24.1791 24.9374L23.2166 21.9916H17.6166L16.5083 24.9666C16.4305 25.161 16.2944 25.3263 16.1 25.4624C15.9055 25.5985 15.7013 25.6666 15.4875 25.6666ZM18.2583 19.9499H22.4L20.3583 14.2916H20.3L18.2583 19.9499ZM8.42913 9.97492C8.72079 10.4805 9.04163 10.9714 9.39163 11.4478C9.74163 11.9242 10.1208 12.4152 10.5291 12.9208C11.4041 12.0069 12.1333 11.0589 12.7166 10.077C13.3 9.09506 13.7958 8.06936 14.2041 6.99992H2.33329C2.00274 6.99992 1.72565 6.88811 1.50204 6.6645C1.27843 6.44089 1.16663 6.16381 1.16663 5.83325C1.16663 5.5027 1.27843 5.22561 1.50204 5.002C1.72565 4.77839 2.00274 4.66659 2.33329 4.66659H9.33329V3.49992C9.33329 3.16936 9.4451 2.89228 9.66871 2.66867C9.89232 2.44506 10.1694 2.33325 10.5 2.33325C10.8305 2.33325 11.1076 2.44506 11.3312 2.66867C11.5548 2.89228 11.6666 3.16936 11.6666 3.49992V4.66659H18.6666C18.9972 4.66659 19.2743 4.77839 19.4979 5.002C19.7215 5.22561 19.8333 5.5027 19.8333 5.83325C19.8333 6.16381 19.7215 6.44089 19.4979 6.6645C19.2743 6.88811 18.9972 6.99992 18.6666 6.99992H16.5375C16.1097 8.34159 15.5409 9.65895 14.8312 10.952C14.1215 12.2451 13.2513 13.4749 12.2208 14.6416L15.0791 17.5291L14.2041 19.8916L10.5 16.3333L5.45413 21.3791C5.24024 21.593 4.97774 21.6999 4.66663 21.6999C4.35551 21.6999 4.09301 21.5833 3.87913 21.3499C3.64579 21.136 3.52913 20.8735 3.52913 20.5624C3.52913 20.2513 3.64579 19.9791 3.87913 19.7458L9.01246 14.6124C8.5069 14.0096 8.03051 13.402 7.58329 12.7895C7.13607 12.177 6.72774 11.5499 6.35829 10.9083C6.12496 10.4805 6.10552 10.111 6.29996 9.79992C6.4944 9.48881 6.8444 9.33325 7.34996 9.33325C7.56385 9.33325 7.77288 9.39645 7.97704 9.52284C8.18121 9.64923 8.3319 9.79992 8.42913 9.97492Z" fill="url(#paint0_linear_2_224)"/>
<defs>
<linearGradient id="paint0_linear_2_224" x1="13.8111" y1="2.33325" x2="13.8111" y2="25.6666" gradientUnits="userSpaceOnUse">
<stop stop-color="#393199"/>
<stop offset="1" stop-color="#9071E9"/>
</linearGradient>
</defs>
</svg>
