<svg width="370" height="40" viewBox="0 0 370 40" fill="none" xmlns="http://www.w3.org/2000/svg">
<path d="M8.70403 39H0.832031V5.73597H8.70403V39ZM8.94403 21.24L18.04 5.73597H26.296L16.888 20.664L27.208 39H18.088L8.94403 21.24Z" fill="#141414"/>
<path d="M51.5973 31.656C51.5973 32.616 51.7253 33.312 51.9813 33.744C52.2533 34.176 52.6853 34.504 53.2773 34.728L51.7173 39.72C50.2133 39.576 48.9413 39.248 47.9013 38.736C46.8773 38.208 46.0693 37.416 45.4773 36.36C44.5013 37.528 43.2533 38.4 41.7333 38.976C40.2133 39.536 38.6613 39.816 37.0773 39.816C34.4533 39.816 32.3573 39.072 30.7893 37.584C29.2373 36.08 28.4613 34.152 28.4613 31.8C28.4613 29.032 29.5413 26.896 31.7013 25.392C33.8773 23.888 36.9333 23.136 40.8693 23.136H44.3013V22.176C44.3013 20.848 43.8693 19.864 43.0053 19.224C42.1573 18.584 40.9093 18.264 39.2613 18.264C38.4453 18.264 37.3973 18.384 36.1173 18.624C34.8373 18.848 33.5573 19.176 32.2773 19.608L30.5253 14.568C32.1733 13.944 33.8853 13.472 35.6613 13.152C37.4533 12.832 39.0533 12.672 40.4613 12.672C44.2533 12.672 47.0533 13.448 48.8613 15C50.6853 16.536 51.5973 18.76 51.5973 21.672V31.656ZM39.6933 34.392C40.5093 34.392 41.3653 34.152 42.2613 33.672C43.1573 33.176 43.8373 32.48 44.3013 31.584V27.456H42.4293C40.3173 27.456 38.7653 27.784 37.7733 28.44C36.7813 29.08 36.2853 30.024 36.2853 31.272C36.2853 32.248 36.5813 33.016 37.1733 33.576C37.7813 34.12 38.6213 34.392 39.6933 34.392Z" fill="#141414"/>
<path d="M66.5065 13.512V30.96C66.5065 32.192 66.7305 33.04 67.1785 33.504C67.6425 33.968 68.2825 34.2 69.0985 34.2C69.8825 34.2 70.6665 33.952 71.4505 33.456C72.2345 32.96 72.8905 32.288 73.4185 31.44V13.512H81.0025V39H74.3785L74.0425 36.024C73.1785 37.272 72.0425 38.216 70.6345 38.856C69.2265 39.496 67.7545 39.816 66.2185 39.816C63.7545 39.816 61.9225 39.104 60.7225 37.68C59.5225 36.24 58.9225 34.312 58.9225 31.896V13.512H66.5065Z" fill="#141414"/>
<path d="M109.16 31.656C109.16 32.616 109.288 33.312 109.544 33.744C109.816 34.176 110.248 34.504 110.84 34.728L109.28 39.72C107.776 39.576 106.504 39.248 105.464 38.736C104.44 38.208 103.632 37.416 103.04 36.36C102.064 37.528 100.816 38.4 99.2958 38.976C97.7758 39.536 96.2238 39.816 94.6398 39.816C92.0158 39.816 89.9198 39.072 88.3518 37.584C86.7998 36.08 86.0238 34.152 86.0238 31.8C86.0238 29.032 87.1038 26.896 89.2638 25.392C91.4398 23.888 94.4958 23.136 98.4318 23.136H101.864V22.176C101.864 20.848 101.432 19.864 100.568 19.224C99.7198 18.584 98.4718 18.264 96.8238 18.264C96.0078 18.264 94.9598 18.384 93.6798 18.624C92.3998 18.848 91.1198 19.176 89.8398 19.608L88.0878 14.568C89.7358 13.944 91.4478 13.472 93.2238 13.152C95.0158 12.832 96.6158 12.672 98.0238 12.672C101.816 12.672 104.616 13.448 106.424 15C108.248 16.536 109.16 18.76 109.16 21.672V31.656ZM97.2558 34.392C98.0718 34.392 98.9278 34.152 99.8238 33.672C100.72 33.176 101.4 32.48 101.864 31.584V27.456H99.9918C97.8798 27.456 96.3278 27.784 95.3358 28.44C94.3438 29.08 93.8478 30.024 93.8478 31.272C93.8478 32.248 94.1438 33.016 94.7358 33.576C95.3438 34.12 96.1838 34.392 97.2558 34.392Z" fill="#141414"/>
<path d="M116.485 39V13.512H123.109L123.637 16.464C124.773 15.184 125.973 14.232 127.237 13.608C128.501 12.984 129.941 12.672 131.557 12.672C133.733 12.672 135.445 13.336 136.693 14.664C137.941 15.992 138.565 17.864 138.565 20.28V39H130.981V22.464C130.981 21.424 130.909 20.6 130.765 19.992C130.621 19.368 130.365 18.928 129.997 18.672C129.645 18.4 129.157 18.264 128.533 18.264C128.005 18.264 127.485 18.384 126.973 18.624C126.477 18.848 125.989 19.176 125.509 19.608C125.029 20.04 124.549 20.56 124.069 21.168V39H116.485Z" fill="#141414"/>
<path d="M151.842 28.464C152.018 29.856 152.378 30.984 152.922 31.848C153.482 32.696 154.194 33.32 155.058 33.72C155.922 34.104 156.89 34.296 157.962 34.296C159.13 34.296 160.258 34.104 161.346 33.72C162.434 33.336 163.482 32.824 164.49 32.184L167.538 36.312C166.338 37.336 164.882 38.176 163.17 38.832C161.474 39.488 159.538 39.816 157.362 39.816C154.45 39.816 152.01 39.24 150.042 38.088C148.074 36.92 146.594 35.32 145.602 33.288C144.61 31.256 144.114 28.92 144.114 26.28C144.114 23.768 144.594 21.488 145.554 19.44C146.514 17.376 147.914 15.736 149.754 14.52C151.61 13.288 153.874 12.672 156.546 12.672C158.978 12.672 161.082 13.192 162.858 14.232C164.65 15.272 166.034 16.768 167.01 18.72C168.002 20.672 168.498 23.016 168.498 25.752C168.498 26.184 168.482 26.648 168.45 27.144C168.434 27.64 168.402 28.08 168.354 28.464H151.842ZM156.546 17.76C155.186 17.76 154.09 18.248 153.258 19.224C152.426 20.2 151.922 21.76 151.746 23.904H161.106C161.09 22.048 160.73 20.56 160.026 19.44C159.322 18.32 158.162 17.76 156.546 17.76Z" fill="#141414"/>
<path d="M214.013 32.856L220.277 5.73597H228.341L218.741 39H208.997L199.445 5.73597H207.797L214.013 32.856Z" fill="#141414"/>
<path d="M247.186 13.512V33.816H253.666V39H232.378V33.816H239.602V18.696H232.618V13.512H247.186ZM242.602 0.167969C243.914 0.167969 244.986 0.575969 245.818 1.39197C246.65 2.20797 247.066 3.22397 247.066 4.43997C247.066 5.65597 246.65 6.67997 245.818 7.51197C244.986 8.32797 243.914 8.73597 242.602 8.73597C241.274 8.73597 240.186 8.32797 239.338 7.51197C238.506 6.67997 238.09 5.65597 238.09 4.43997C238.09 3.22397 238.506 2.20797 239.338 1.39197C240.186 0.575969 241.274 0.167969 242.602 0.167969Z" fill="#141414"/>
<path d="M266.967 28.464C267.143 29.856 267.503 30.984 268.047 31.848C268.607 32.696 269.319 33.32 270.183 33.72C271.047 34.104 272.015 34.296 273.087 34.296C274.255 34.296 275.383 34.104 276.471 33.72C277.559 33.336 278.607 32.824 279.615 32.184L282.663 36.312C281.463 37.336 280.007 38.176 278.295 38.832C276.599 39.488 274.663 39.816 272.487 39.816C269.575 39.816 267.135 39.24 265.167 38.088C263.199 36.92 261.719 35.32 260.727 33.288C259.735 31.256 259.239 28.92 259.239 26.28C259.239 23.768 259.719 21.488 260.679 19.44C261.639 17.376 263.039 15.736 264.879 14.52C266.735 13.288 268.999 12.672 271.671 12.672C274.103 12.672 276.207 13.192 277.983 14.232C279.775 15.272 281.159 16.768 282.135 18.72C283.127 20.672 283.623 23.016 283.623 25.752C283.623 26.184 283.607 26.648 283.575 27.144C283.559 27.64 283.527 28.08 283.479 28.464H266.967ZM271.671 17.76C270.311 17.76 269.215 18.248 268.383 19.224C267.551 20.2 267.047 21.76 266.871 23.904H276.231C276.215 22.048 275.855 20.56 275.151 19.44C274.447 18.32 273.287 17.76 271.671 17.76Z" fill="#141414"/>
<path d="M304.749 13.512V33.816H311.229V39H289.941V33.816H297.165V18.696H290.181V13.512H304.749ZM300.165 0.167969C301.477 0.167969 302.549 0.575969 303.381 1.39197C304.213 2.20797 304.629 3.22397 304.629 4.43997C304.629 5.65597 304.213 6.67997 303.381 7.51197C302.549 8.32797 301.477 8.73597 300.165 8.73597C298.837 8.73597 297.749 8.32797 296.901 7.51197C296.069 6.67997 295.653 5.65597 295.653 4.43997C295.653 3.22397 296.069 2.20797 296.901 1.39197C297.749 0.575969 298.837 0.167969 300.165 0.167969Z" fill="#141414"/>
<path d="M318.194 39V33.912H321.554V18.552H318.194V13.512H327.338L328.73 19.248C329.642 17.056 330.802 15.424 332.21 14.352C333.634 13.28 335.37 12.744 337.418 12.744C338.282 12.744 339.05 12.816 339.722 12.96C340.394 13.088 341.026 13.272 341.618 13.512L339.314 19.776C338.85 19.648 338.386 19.552 337.922 19.488C337.458 19.424 336.946 19.392 336.386 19.392C334.722 19.392 333.258 20.072 331.994 21.432C330.746 22.792 329.794 24.52 329.138 26.616V33.912H334.178V39H318.194ZM335.45 24.168V16.728L336.578 13.512H341.618L340.202 24.168H335.45Z" fill="#141414"/>
<path d="M368.191 31.656C368.191 32.616 368.319 33.312 368.575 33.744C368.847 34.176 369.279 34.504 369.871 34.728L368.311 39.72C366.807 39.576 365.535 39.248 364.495 38.736C363.471 38.208 362.663 37.416 362.071 36.36C361.095 37.528 359.847 38.4 358.327 38.976C356.807 39.536 355.255 39.816 353.671 39.816C351.047 39.816 348.951 39.072 347.383 37.584C345.831 36.08 345.055 34.152 345.055 31.8C345.055 29.032 346.135 26.896 348.295 25.392C350.471 23.888 353.527 23.136 357.463 23.136H360.895V22.176C360.895 20.848 360.463 19.864 359.599 19.224C358.751 18.584 357.503 18.264 355.855 18.264C355.039 18.264 353.991 18.384 352.711 18.624C351.431 18.848 350.151 19.176 348.871 19.608L347.119 14.568C348.767 13.944 350.479 13.472 352.255 13.152C354.047 12.832 355.647 12.672 357.055 12.672C360.847 12.672 363.647 13.448 365.455 15C367.279 16.536 368.191 18.76 368.191 21.672V31.656ZM356.287 34.392C357.103 34.392 357.959 34.152 358.855 33.672C359.751 33.176 360.431 32.48 360.895 31.584V27.456H359.023C356.911 27.456 355.359 27.784 354.367 28.44C353.375 29.08 352.879 30.024 352.879 31.272C352.879 32.248 353.175 33.016 353.767 33.576C354.375 34.12 355.215 34.392 356.287 34.392Z" fill="#141414"/>
</svg>
